<?xml version="1.0" standalone="no"?>
<!DOCTYPE svg PUBLIC "-//W3C//DTD SVG 20010904//EN"
 "http://www.w3.org/TR/2001/REC-SVG-20010904/DTD/svg10.dtd">
<svg version="1.0" xmlns="http://www.w3.org/2000/svg"
 width="256.000000pt" height="256.000000pt" viewBox="0 0 256.000000 256.000000"
 preserveAspectRatio="xMidYMid meet">
<metadata>
Created by potrace 1.16, written by Peter Selinger 2001-2019
</metadata>
<g transform="translate(0.000000,256.000000) scale(0.100000,-0.100000)"
fill="#000000" stroke="none">
<path d="M108 2450 l-28 -29 0 -341 0 -342 29 -29 c16 -16 39 -29 51 -29 12 0
35 13 51 29 l29 29 0 291 0 291 316 0 316 0 29 29 c16 16 29 39 29 51 0 12
-13 35 -29 51 l-29 29 -369 0 -368 -1 -27 -29z"/>
<path d="M1808 2459 c-25 -27 -24 -93 2 -119 19 -19 33 -20 265 -20 l245 0 0
-291 0 -291 29 -29 c37 -37 65 -37 102 0 l29 29 0 342 0 342 -29 29 -29 29
-299 -1 c-280 -1 -299 -2 -315 -20z"/>
<path d="M1018 1972 c-81 -1 -138 -7 -138 -12 0 -6 -7 -10 -15 -10 -13 0 -15
-80 -13 -682 l3 -683 45 -3 c24 -2 59 -1 77 3 l33 6 0 254 0 255 135 0 c83 0
135 4 135 10 0 6 28 10 64 10 48 0 65 4 70 15 3 8 17 15 31 15 14 0 25 5 25
10 0 6 11 10 25 10 16 0 25 6 25 15 0 9 9 15 25 15 16 0 25 6 25 15 0 8 7 15
15 15 8 0 15 5 15 11 0 6 6 17 13 24 25 29 33 40 40 58 3 9 11 17 17 17 5 0
10 15 10 34 0 19 6 36 13 39 17 5 17 279 0 285 -7 2 -13 17 -13 33 0 19 -5 29
-15 29 -9 0 -15 9 -15 25 0 14 -4 25 -10 25 -5 0 -10 7 -10 15 0 8 -7 15 -15
15 -8 0 -15 7 -15 15 0 8 -7 15 -15 15 -8 0 -15 4 -15 9 0 5 -11 12 -25 15
-14 4 -25 11 -25 16 0 6 -11 10 -25 10 -14 0 -25 4 -25 10 0 5 -17 12 -37 16
-21 4 -40 10 -43 14 -7 9 -199 16 -372 12z m312 -141 c0 -5 14 -12 30 -16 17
-4 30 -11 30 -16 0 -5 11 -9 25 -9 16 0 25 -6 25 -15 0 -8 5 -15 11 -15 14 0
39 -25 39 -39 0 -6 7 -11 15 -11 10 0 15 -10 15 -29 0 -16 5 -31 12 -33 8 -3
14 -32 16 -80 3 -59 1 -78 -12 -91 -9 -8 -16 -30 -16 -47 0 -20 -9 -39 -25
-54 -14 -13 -25 -28 -25 -35 0 -6 -5 -11 -11 -11 -7 0 -22 -11 -35 -25 -14
-16 -34 -25 -52 -25 -17 0 -32 -6 -36 -15 -4 -12 -32 -15 -166 -15 l-160 0 0
295 0 295 160 0 c91 0 160 -4 160 -9z"/>
<path d="M108 850 l-28 -29 0 -341 0 -342 29 -29 29 -29 367 0 367 0 29 29
c37 37 37 65 0 102 l-29 29 -316 0 -316 0 0 291 0 291 -29 29 c-37 36 -68 36
-103 -1z"/>
<path d="M2348 850 l-28 -29 0 -290 0 -291 -245 0 c-232 0 -246 -1 -265 -20
-13 -13 -20 -33 -20 -60 0 -27 7 -47 20 -60 19 -19 33 -20 316 -20 l296 0 29
29 29 29 0 342 0 342 -29 29 c-37 36 -68 36 -103 -1z"/>
</g>
</svg>
